<svg xmlns="http://www.w3.org/2000/svg" width="139.035" height="139.01" viewBox="0 0 139.035 139.01">
  <g id="adelantos" transform="translate(-162.511 -249)">
    <path id="FORMA_X" data-name="FORMA X" d="M141.615,92.6l-.061-.061c-.706-.747-1.433-1.453-2.2-2.139-6.619-7.386-2.946-14.086,0-17.578q1.332-1.181,2.543-2.482h0A34.743,34.743,0,0,0,93.14,20.956c-12.23,9.868-23.329-.121-23.329-.121v.04A34.741,34.741,0,0,0,21.154,70.339h0c.807.868,1.635,1.7,2.523,2.482,2.946,3.471,6.64,10.191,0,17.578-.767.686-1.493,1.392-2.18,2.139l-.061.061h0a34.732,34.732,0,0,0,48.495,49.645c1.352-.807,10.212-9.465,23.41.242h0a33.366,33.366,0,0,0,4.944,3.612,34.736,34.736,0,0,0,43.328-53.5Z" transform="translate(150.495 236.854)" fill="#3379bd"/>
    <text id="Adelantos-2" data-name="Adelantos" transform="translate(231.994 358.011)" fill="#fff" font-size="14" font-family="Montserrat-SemiBold, Montserrat" font-weight="600"><tspan x="-36.4" y="0">Adelantos</tspan></text>
    <g id="history-clock-button" transform="translate(205.617 289.45)">
      <g id="history" transform="translate(0 0)">
        <path id="Trazado_85" data-name="Trazado 85" d="M27.724,12.75A24.658,24.658,0,0,0,6.073,25.424L0,19.351V36.513H17.162L9.769,29.12a19.909,19.909,0,0,1,37.757,8.713,19.847,19.847,0,0,1-38.549,6.6H3.432A25.123,25.123,0,1,0,27.724,12.75Zm-3.961,13.2V39.418l12.41,7.393,2.112-3.432L27.724,37.041V25.952Z" transform="translate(0 -12.75)" fill="#fff" opacity="0.9"/>
      </g>
    </g>
  </g>
</svg>
