<svg xmlns="http://www.w3.org/2000/svg" width="139.035" height="139.01" viewBox="0 0 139.035 139.01">
  <g id="añadir_fondos" data-name="añadir fondos" transform="translate(-1.511 12)">
    <path id="FORMA_X" data-name="FORMA X" d="M141.615,92.6l-.061-.061c-.706-.747-1.433-1.453-2.2-2.139-6.619-7.386-2.946-14.086,0-17.578q1.332-1.181,2.543-2.482h0A34.743,34.743,0,0,0,93.14,20.956c-12.23,9.868-23.329-.121-23.329-.121v.04A34.741,34.741,0,0,0,21.154,70.339h0c.807.868,1.635,1.7,2.523,2.482,2.946,3.471,6.64,10.191,0,17.578-.767.686-1.493,1.392-2.18,2.139l-.061.061h0a34.732,34.732,0,0,0,48.495,49.645c1.352-.807,10.212-9.465,23.41.242h0a33.366,33.366,0,0,0,4.944,3.612,34.736,34.736,0,0,0,43.328-53.5Z" transform="translate(-10.505 -24.146)" fill="#3379bd"/>
    <g id="plus-sign-in-a-black-circle" transform="translate(46.721 7.525)">
      <path id="Trazado_87" data-name="Trazado 87" d="M47.127,12.49a25.04,25.04,0,0,0-9.193-9.127A24.819,24.819,0,0,0,25.262,0,25.231,25.231,0,0,0,3.387,12.49,24.416,24.416,0,0,0,0,25.083,24.416,24.416,0,0,0,3.387,37.676a25.231,25.231,0,0,0,21.876,12.49,25.231,25.231,0,0,0,21.876-12.49,24.416,24.416,0,0,0,3.387-12.593A24.537,24.537,0,0,0,47.127,12.49ZM40,27.165a2,2,0,0,1-.622,1.464,2.028,2.028,0,0,1-1.475.618H29.479v8.361a2.117,2.117,0,0,1-2.1,2.093H23.154a2.028,2.028,0,0,1-1.475-.618,2.007,2.007,0,0,1-.622-1.475V29.247H12.637a2.028,2.028,0,0,1-1.475-.618,2,2,0,0,1-.622-1.464V22.99a2,2,0,0,1,.622-1.464,2.028,2.028,0,0,1,1.475-.618h8.421V12.547a2,2,0,0,1,.622-1.464,2.028,2.028,0,0,1,1.475-.618h4.2a2.028,2.028,0,0,1,1.475.618,2,2,0,0,1,.622,1.464v8.361h8.421a2.028,2.028,0,0,1,1.475.618,2,2,0,0,1,.622,1.464v4.175Z" transform="translate(-1 25)" fill="#fff"/>
    </g>
    <text id="Añadir_Fondos-2" data-name="Añadir Fondos" transform="translate(71.214 99.086)" fill="#fff" font-size="14" font-family="Montserrat-SemiBold, Montserrat" font-weight="600"><tspan x="-52.654" y="0">Añadir Fondos</tspan></text>
  </g>
</svg>
