<svg xmlns="http://www.w3.org/2000/svg" width="196.809" height="134.638" viewBox="0 0 196.809 134.638">
  <g id="LOGO3-01" transform="translate(-0.865 -3.974)">
    <path id="Trazado_51" data-name="Trazado 51" d="M19.7,78.144l6.508,12.023h-7.33l-3.631-7.193L8.983,90.167H.865l11.406-12.4L6.14,66.189h7.228l3.494,6.885,6.1-6.885h7.673Z" transform="translate(0 47.961)" fill="#fff"/>
    <path id="Trazado_52" data-name="Trazado 52" d="M21.405,66.189h6.782l-4.8,23.978H16.61Z" transform="translate(12.138 47.961)" fill="#fff"/>
    <path id="Trazado_53" data-name="Trazado 53" d="M27.4,90.138a14.572,14.572,0,0,1-4.35-1.85l2.671-5.07a14.8,14.8,0,0,0,3.871,1.764,14.615,14.615,0,0,0,4.111.6,6.637,6.637,0,0,0,3.032-.565,1.723,1.723,0,0,0,1.079-1.559,1.474,1.474,0,0,0-.976-1.336,17.8,17.8,0,0,0-3.032-1.028,31.682,31.682,0,0,1-3.871-1.25,6.9,6.9,0,0,1-2.655-1.935,5.086,5.086,0,0,1-1.113-3.425,7.465,7.465,0,0,1,1.4-4.5,9,9,0,0,1,4.008-3,16.081,16.081,0,0,1,6.1-1.062,20.645,20.645,0,0,1,4.8.531,13.038,13.038,0,0,1,3.837,1.524l-2.467,5.035a11.306,11.306,0,0,0-3.1-1.353,13.15,13.15,0,0,0-3.477-.463,6.462,6.462,0,0,0-3.169.651,1.917,1.917,0,0,0-1.147,1.679,1.493,1.493,0,0,0,.993,1.37,18.232,18.232,0,0,0,3.083,1.028,29.779,29.779,0,0,1,3.853,1.2A6.8,6.8,0,0,1,43.5,79a4.9,4.9,0,0,1,1.1,3.323,7.352,7.352,0,0,1-1.421,4.47,9.1,9.1,0,0,1-4.042,3,16.113,16.113,0,0,1-6.08,1.062,21.653,21.653,0,0,1-5.652-.719Z" transform="translate(17.103 47.751)" fill="#fff"/>
    <path id="Trazado_54" data-name="Trazado 54" d="M47.164,71.43,46.1,76.705H56.686l-1.062,5.241H45.075l-1.644,8.221H36.648l4.8-23.978H60.215L59.153,71.43Z" transform="translate(27.585 47.961)" fill="#fff"/>
    <path id="Trazado_55" data-name="Trazado 55" d="M55.615,89.521a9.834,9.834,0,0,1-4.145-3.734,10.348,10.348,0,0,1-1.455-5.481,14.513,14.513,0,0,1,1.9-7.4,13.369,13.369,0,0,1,5.309-5.138,16,16,0,0,1,7.758-1.85,14.044,14.044,0,0,1,6.32,1.336,9.843,9.843,0,0,1,4.145,3.734A10.353,10.353,0,0,1,76.9,76.47a14.513,14.513,0,0,1-1.9,7.4,13.372,13.372,0,0,1-5.309,5.138,16,16,0,0,1-7.758,1.85,14.043,14.043,0,0,1-6.32-1.336Zm10.876-5.412a7.478,7.478,0,0,0,2.637-3.032,9.465,9.465,0,0,0,.925-4.2,5.189,5.189,0,0,0-1.49-3.888A5.705,5.705,0,0,0,64.4,71.538a7.049,7.049,0,0,0-3.973,1.13A7.477,7.477,0,0,0,57.79,75.7a9.466,9.466,0,0,0-.925,4.2,5.187,5.187,0,0,0,1.49,3.888,5.7,5.7,0,0,0,4.162,1.456,7.05,7.05,0,0,0,3.973-1.13Z" transform="translate(37.888 47.751)" fill="#fff"/>
    <path id="Trazado_56" data-name="Trazado 56" d="M88.018,68.421a6.74,6.74,0,0,1,2.491,5.587,9.038,9.038,0,0,1-5.5,8.616,14.6,14.6,0,0,1-6.142,1.212H74.151L72.94,89.995H66.276l4.712-23.56H80.95A11.093,11.093,0,0,1,88.018,68.421Zm-5.435,9.121a3.722,3.722,0,0,0,1.195-2.962,2.549,2.549,0,0,0-.959-2.171,4.489,4.489,0,0,0-2.743-.724h-3.5l-1.38,6.9h3.971a5.037,5.037,0,0,0,3.416-1.043Z" transform="translate(50.425 48.134)" fill="#ffce03"/>
    <path id="Trazado_57" data-name="Trazado 57" d="M98.1,85.408H88.067l-2.726,4.577H78.306l15.112-23.56h6.563l5.688,23.56h-6.63Zm-1.01-4.914L95.5,72.854l-4.51,7.64Z" transform="translate(59.699 48.143)" fill="#ffce03"/>
    <path id="Trazado_58" data-name="Trazado 58" d="M108.032,84.638l-1.649,8.347H99.72l1.683-8.515L95.411,69.425h6.7l3.7,9.39,12.213-16.281h6.765Z" transform="translate(72.885 45.144)" fill="#ffce03"/>
    <path id="Trazado_59" data-name="Trazado 59" d="M46.509,26.707A22.645,22.645,0,0,0,52.48,42.059l0,0a23.135,23.135,0,0,0,1.651,1.623c1.93,2.271,4.345,6.663,0,11.5q-.743.664-1.429,1.394a.537.537,0,0,0-.043.038l.005,0a22.721,22.721,0,0,0,5.6,35.456A22.726,22.726,0,0,1,30.724,56.62l0,0c.015-.013.028-.028.043-.038.455-.486.933-.951,1.429-1.394,4.342-4.838,1.927-9.23,0-11.5a22.678,22.678,0,0,1-1.649-1.623l-.005,0A22.73,22.73,0,0,1,58.268,6.8,22.712,22.712,0,0,0,46.509,26.707Z" transform="translate(18.272 0.002)" fill="#62c4e1"/>
    <path id="Trazado_60" data-name="Trazado 60" d="M59.746,9.7a22.764,22.764,0,0,0-3.313-2.44A22.729,22.729,0,0,1,79.165,6.8,22.871,22.871,0,0,0,75.01,9.746a11.739,11.739,0,0,1-15.269-.073Z" transform="translate(42.837 0.003)" fill="#62c4e1"/>
    <path id="Trazado_61" data-name="Trazado 61" d="M75.146,53.427a22.923,22.923,0,0,0,4.018,2.827A22.73,22.73,0,0,1,56.433,55.8a22.882,22.882,0,0,0,3.4-2.519c.883-.531,6.689-6.2,15.312.154Z" transform="translate(42.837 35.824)" fill="#62c4e1"/>
    <path id="Trazado_62" data-name="Trazado 62" d="M99.775,55.388a22.723,22.723,0,0,1-5.6,35.458,22.923,22.923,0,0,1-4.018-2.827l0,.005c-8.623-6.35-14.429-.685-15.312-.154a22.882,22.882,0,0,1-3.4,2.519,22.884,22.884,0,0,1-3.229-2.369l0,.005c-8.626-6.35-14.429-.685-15.312-.154a22.745,22.745,0,0,1-4.19,2.976,22.721,22.721,0,0,1-5.6-35.456l-.005,0a.544.544,0,0,1,.043-.038q.686-.729,1.429-1.394c4.342-4.838,1.927-9.23,0-11.5q-.865-.77-1.651-1.623l0,0A22.727,22.727,0,0,1,48.716,5.571a22.765,22.765,0,0,1,4.1,2.9l0-.025a11.739,11.739,0,0,0,15.269.073,22.726,22.726,0,0,1,3.366-2.488,22.763,22.763,0,0,1,3.313,2.44l-.005-.025a11.739,11.739,0,0,0,15.269.073,22.87,22.87,0,0,1,4.155-2.946A22.72,22.72,0,0,1,99.967,40.83h0a22.8,22.8,0,0,1-1.656,1.629c-1.93,2.273-4.339,6.661,0,11.5q.75.667,1.439,1.4l.038.033Z" transform="translate(27.823 1.232)" fill="#144294"/>
    <path id="Trazado_63" data-name="Trazado 63" d="M54.57,3.978a22.6,22.6,0,0,1,11.759,3.28,22.728,22.728,0,0,0-3.366,2.488,11.739,11.739,0,0,1-15.269-.073l0,.025a22.765,22.765,0,0,0-4.1-2.9A22.586,22.586,0,0,1,54.57,3.978Z" transform="translate(32.942 0.003)" fill="#3379bd"/>
    <path id="Trazado_64" data-name="Trazado 64" d="M63.1,53.427A22.886,22.886,0,0,0,66.329,55.8a22.734,22.734,0,0,1-22.733.458,22.745,22.745,0,0,0,4.19-2.976c.883-.531,6.686-6.2,15.312.154Z" transform="translate(32.941 35.824)" fill="#3379bd"/>
    <path id="Trazado_65" data-name="Trazado 65" d="M96.81,56.62A22.727,22.727,0,0,1,69.269,92.078a22.723,22.723,0,0,0,5.6-35.458h.005l-.038-.033q-.687-.732-1.439-1.4c-4.334-4.835-1.925-9.222,0-11.5a22.794,22.794,0,0,0,1.656-1.629h0A22.731,22.731,0,0,0,69.269,6.8,22.722,22.722,0,0,1,95.341,43.69c-1.929,2.273-4.339,6.661,0,11.5.5.445.978.913,1.439,1.4A.206.206,0,0,1,96.81,56.62Z" transform="translate(52.732 0)" fill="#3379bd"/>
  </g>
</svg>
