<svg xmlns="http://www.w3.org/2000/svg" width="139.035" height="139.031" viewBox="0 0 139.035 139.031">
  <g id="teritos" transform="translate(-1.511 9.946)">
    <path id="FORMA_X" data-name="FORMA X" d="M141.615,92.6l-.061-.061c-.706-.747-1.433-1.453-2.2-2.139-6.619-7.386-2.946-14.086,0-17.578q1.332-1.181,2.543-2.482h0A34.743,34.743,0,0,0,93.14,20.956c-12.23,9.868-23.329-.121-23.329-.121v.04A34.741,34.741,0,0,0,21.154,70.339h0c.807.868,1.635,1.7,2.523,2.482,2.946,3.471,6.64,10.191,0,17.578-.767.686-1.493,1.392-2.18,2.139l-.061.061h0a34.732,34.732,0,0,0,48.495,49.645c1.352-.807,10.212-9.465,23.41.242h0a33.366,33.366,0,0,0,4.944,3.612,34.736,34.736,0,0,0,43.328-53.5Z" transform="translate(-10.505 -22.071)" fill="#3379bd"/>
    <text id="Retiros_" data-name="Retiros " transform="translate(70.806 99.086)" fill="#fff" font-size="14" font-family="Montserrat-SemiBold, Montserrat" font-weight="600"><tspan x="-27.384" y="0">Retiros </tspan></text>
    <g id="Grupo_7" data-name="Grupo 7" transform="translate(43.615 31.525)">
      <path id="Trazado_81" data-name="Trazado 81" d="M46.686,29.769a13.744,13.744,0,0,0-2.04,3.693H10.561A10.991,10.991,0,0,0,8.4,29.769H5.041A7.411,7.411,0,0,1,1.08,28.662H0v3.569a6.068,6.068,0,0,0,1.8,4.062A5.149,5.149,0,0,0,5.041,37.4H50.047a5.137,5.137,0,0,0,5.041-5.169V27.8a7.407,7.407,0,0,1-5.041,1.969Z" transform="translate(0 2.863)" fill="#fff"/>
      <path id="Trazado_82" data-name="Trazado 82" d="M50.167,2.1H5.041A5.031,5.031,0,0,0,0,7.146v20.8a6.068,6.068,0,0,0,1.8,4.062,5.149,5.149,0,0,0,3.24,1.108H50.047a5.137,5.137,0,0,0,5.041-5.169V7.146A4.858,4.858,0,0,0,50.167,2.1Zm1.32,20.063A11.4,11.4,0,0,0,44.646,29.3H10.561A12.735,12.735,0,0,0,3.72,22.163V13.054a12.017,12.017,0,0,0,6.841-7.139H44.646a10.838,10.838,0,0,0,6.841,7.139v9.108Z" transform="translate(0 -2.1)" fill="#fff"/>
      <path id="Trazado_83" data-name="Trazado 83" d="M24.731,7.2a9.231,9.231,0,1,0,9.231,9.231A9.38,9.38,0,0,0,24.731,7.2Zm.739,14.524v1.723h-1.6v-1.6a6.956,6.956,0,0,1-2.954-.738l.492-1.969a6.39,6.39,0,0,0,2.831.738c.985,0,1.6-.369,1.6-1.108,0-.615-.492-1.108-1.846-1.477-1.723-.615-2.954-1.477-2.954-3.077a3.257,3.257,0,0,1,2.831-3.077v-1.6h1.723v1.477a4.526,4.526,0,0,1,2.462.615L27.562,13.6a5.026,5.026,0,0,0-2.462-.615c-1.108,0-1.477.492-1.477.985,0,.615.615.862,2.092,1.477,1.969.738,2.831,1.6,2.831,3.2A3.5,3.5,0,0,1,25.47,21.724Z" transform="translate(2.872 -0.923)" fill="#fff"/>
      <path id="Trazado_84" data-name="Trazado 84" d="M46.686,38.069a13.744,13.744,0,0,0-2.04,3.692H10.561A10.991,10.991,0,0,0,8.4,38.069H5.041A7.411,7.411,0,0,1,1.08,36.962H0v3.569a6.068,6.068,0,0,0,1.8,4.062A5.149,5.149,0,0,0,5.041,45.7H50.047a5.137,5.137,0,0,0,5.041-5.169V36.1a7.407,7.407,0,0,1-5.041,1.969Z" transform="translate(0 4.466)" fill="#fff"/>
    </g>
  </g>
</svg>
