<svg xmlns="http://www.w3.org/2000/svg" width="139.035" height="139.01" viewBox="0 0 139.035 139.01">
  <g id="transferencias_" data-name="transferencias " transform="translate(-2.289 12)">
    <path id="FORMA_X" data-name="FORMA X" d="M141.615,92.6l-.061-.061c-.706-.747-1.433-1.453-2.2-2.139-6.619-7.386-2.946-14.086,0-17.578q1.332-1.181,2.543-2.482h0A34.743,34.743,0,0,0,93.14,20.956c-12.23,9.868-23.329-.121-23.329-.121v.04A34.741,34.741,0,0,0,21.154,70.339h0c.807.868,1.635,1.7,2.523,2.482,2.946,3.471,6.64,10.191,0,17.578-.767.686-1.493,1.392-2.18,2.139l-.061.061h0a34.732,34.732,0,0,0,48.495,49.645c1.352-.807,10.212-9.465,23.41.242h0a33.366,33.366,0,0,0,4.944,3.612,34.736,34.736,0,0,0,43.328-53.5Z" transform="translate(-9.727 -24.146)" fill="#3379bd"/>
    <text id="Transferencias" transform="translate(72.214 99.086)" fill="#fff" font-size="14" font-family="Montserrat-SemiBold, Montserrat" font-weight="600"><tspan x="-52.535" y="0">Transferencias</tspan></text>
    <g id="bribery" transform="translate(46.986 31.525)">
      <path id="Trazado_75" data-name="Trazado 75" d="M48.548,1.618H45.312a1.623,1.623,0,0,0-1.618,1.618H39.011a2.418,2.418,0,0,1-1.345-.4L34.439.678A4.038,4.038,0,0,0,32.194,0H20.228A2.435,2.435,0,0,0,17.8,2.427a2.394,2.394,0,0,0,.152.809H15.374a2.435,2.435,0,0,0-2.427,2.427,2.2,2.2,0,0,0,.182.9,2.416,2.416,0,0,0,0,4.673,2.465,2.465,0,0,0-.182.9,2.394,2.394,0,0,0,.152.809H3.237V33.984H1.618A1.623,1.623,0,0,0,0,35.6V48.548a1.623,1.623,0,0,0,1.618,1.618H4.855a1.623,1.623,0,0,0,1.618-1.618H11.51a2.456,2.456,0,0,1,.9.172l2.883,1.153a4,4,0,0,0,1.507.293H32.365a2.435,2.435,0,0,0,2.427-2.427,2.394,2.394,0,0,0-.152-.809h.152A2.435,2.435,0,0,0,37.22,44.5a2.2,2.2,0,0,0-.182-.9,2.416,2.416,0,0,0,0-4.673,2.465,2.465,0,0,0,.182-.9,2.394,2.394,0,0,0-.152-.809H46.93V17.8h1.618a1.623,1.623,0,0,0,1.618-1.618V3.237A1.623,1.623,0,0,0,48.548,1.618ZM14.564,12.137a.812.812,0,0,1,.809-.809H28.32V9.71H13.755a.809.809,0,0,1,0-1.618H26.7V6.473H15.374a.809.809,0,0,1,0-1.618H29.291A11.353,11.353,0,0,0,33.5,11.166l.971-1.295a9.831,9.831,0,0,1-3.742-5.988L30.6,3.237H20.228a.809.809,0,1,1,0-1.618H32.194a2.418,2.418,0,0,1,1.345.4l3.226,2.144a4.038,4.038,0,0,0,2.245.678h4.683v8.091H15.374A.8.8,0,0,1,14.564,12.137ZM1.618,48.548V35.6H4.855V48.548ZM35.6,38.029a.812.812,0,0,1-.809.809H23.465v1.618H36.411a.809.809,0,0,1,0,1.618H23.465v1.618H34.793a.809.809,0,0,1,0,1.618H23.465V46.93h8.9a.809.809,0,0,1,0,1.618H16.81a2.456,2.456,0,0,1-.9-.172l-2.883-1.153a4,4,0,0,0-1.507-.293H6.473V37.22h4.683a4.038,4.038,0,0,0,2.245-.678l3.226-2.154a2.467,2.467,0,0,1,1.345-.4H29.938a.809.809,0,0,1,0,1.618h-9.71V37.22H34.793A.812.812,0,0,1,35.6,38.029ZM16.992,25.083a8.091,8.091,0,1,1,11.631,7.272v.01h-7.05A8.114,8.114,0,0,1,16.992,25.083ZM45.312,35.6h-13.1a2.394,2.394,0,0,0,.152-.809,2.421,2.421,0,0,0-1.244-2.1,9.711,9.711,0,1,0-12.461-.324h-.7a4.038,4.038,0,0,0-2.245.678L12.5,35.2a2.467,2.467,0,0,1-1.345.4H6.473a1.623,1.623,0,0,0-1.618-1.618V14.564H45.312Zm3.237-19.419H46.93V12.946H45.312V3.237h3.237Z" transform="translate(0 0)" fill="#fff"/>
      <path id="Trazado_76" data-name="Trazado 76" d="M213.259,189.664h-2.427a1.214,1.214,0,0,1,0-2.427h2.427a1.217,1.217,0,0,1,1.214,1.214h1.618a2.84,2.84,0,0,0-2.832-2.832h-.4V184h-1.618v1.618h-.4a2.832,2.832,0,0,0,0,5.664h2.427a1.214,1.214,0,1,1,0,2.427h-2.427a1.217,1.217,0,0,1-1.214-1.214H208a2.84,2.84,0,0,0,2.832,2.832h.4v1.618h1.618v-1.618h.4a2.832,2.832,0,1,0,0-5.664Z" transform="translate(-186.962 -165.39)" fill="#fff"/>
      <path id="Trazado_77" data-name="Trazado 77" d="M64,164.046h1.618v-2.427h2.427V160H64Z" transform="translate(-57.527 -143.817)" fill="#fff"/>
      <path id="Trazado_78" data-name="Trazado 78" d="M65.618,296H64v4.046h4.046v-1.618H65.618Z" transform="translate(-57.527 -266.062)" fill="#fff"/>
      <path id="Trazado_79" data-name="Trazado 79" d="M394.427,164.046h1.618V160H392v1.618h2.427Z" transform="translate(-352.352 -143.817)" fill="#fff"/>
      <path id="Trazado_80" data-name="Trazado 80" d="M396.046,296h-1.618v2.427H392v1.618h4.046Z" transform="translate(-352.352 -266.062)" fill="#fff"/>
    </g>
  </g>
</svg>
