<svg xmlns="http://www.w3.org/2000/svg" width="445.5" height="450" viewBox="0 0 445.5 450">
  <g id="Grupo_6" data-name="Grupo 6" transform="translate(1724.98 297.333)">
    <g id="Grupo_3" data-name="Grupo 3" transform="translate(-1724.98 -297.333)">
      <g id="manager" transform="translate(0)">
        <path id="Trazado_66" data-name="Trazado 66" d="M162.714,85.727A41.813,41.813,0,1,0,120.9,43.913,41.84,41.84,0,0,0,162.714,85.727Z" transform="translate(60.637 -2.1)" fill="#fff"/>
        <path id="Trazado_67" data-name="Trazado 67" d="M109.731,181.156H241.741a15.519,15.519,0,0,0,15.531-15.531V107.982a37.092,37.092,0,0,0-25.387-35.093h0l-22.1-3.733a3.8,3.8,0,0,0-4.629,2.24l-25.088,68.992a4.507,4.507,0,0,1-8.512,0L146.467,71.4a3.683,3.683,0,0,0-3.435-2.389c-.3,0-23.3,3.883-23.3,3.883A37.212,37.212,0,0,0,94.2,108.281v57.344a15.615,15.615,0,0,0,15.531,15.531Z" transform="translate(47.465 34.673)" fill="#fff"/>
        <path id="Trazado_68" data-name="Trazado 68" d="M318.683,216.734c-.149,0-.149,0-.3-.149l-11.947-3.733a10.811,10.811,0,0,0-10.3,2.24l-25.835,23.3L244.464,215.24a10.45,10.45,0,0,0-10.3-2.24l-11.947,3.733c-.149,0-.149,0-.3.149A44.171,44.171,0,0,0,191.6,258.846V325.3a10.707,10.707,0,0,0,10.752,10.752H338.246A10.707,10.707,0,0,0,349,325.3V258.846a44.026,44.026,0,0,0-30.315-42.112Z" transform="translate(96.503 113.949)" fill="#fff"/>
        <path id="Trazado_69" data-name="Trazado 69" d="M259.051,237.3A44.651,44.651,0,1,0,214.4,192.651,44.676,44.676,0,0,0,259.051,237.3Z" transform="translate(107.751 77.572)" fill="#fff"/>
        <path id="Trazado_70" data-name="Trazado 70" d="M127.083,216.755c-.149,0-.149,0-.3-.149l-11.947-3.733a10.811,10.811,0,0,0-10.3,2.24L78.7,238.409l-25.835-23.3a10.45,10.45,0,0,0-10.3-2.24s-12.1,3.733-12.245,3.733A44.3,44.3,0,0,0,0,258.718v66.453a10.707,10.707,0,0,0,10.752,10.752H146.645A10.707,10.707,0,0,0,157.4,325.172V258.718A44.365,44.365,0,0,0,127.083,216.755Z" transform="translate(0 113.927)" fill="#fff"/>
        <path id="Trazado_71" data-name="Trazado 71" d="M22.8,192.651A44.651,44.651,0,1,0,67.451,148,44.676,44.676,0,0,0,22.8,192.651Z" transform="translate(11.248 77.572)" fill="#fff"/>
        <path id="Trazado_72" data-name="Trazado 72" d="M260.8,122.194a11.7,11.7,0,0,0-10.9,2.389,11.388,11.388,0,0,0-1.045,16.128l15.68,17.771a11.458,11.458,0,0,0,8.661,3.883,12,12,0,0,0,8.661-3.883l15.68-17.771a11.38,11.38,0,0,0-1.045-16.128,11.755,11.755,0,0,0-12.544-1.792c-2.389-25.088-12.1-48.533-28.224-66.9a11.428,11.428,0,0,0-17.173,15.083A94.43,94.43,0,0,1,260.8,122.194Z" transform="translate(118.251 25.31)" fill="#fff"/>
        <path id="Trazado_73" data-name="Trazado 73" d="M37.225,158.582a11.458,11.458,0,0,0,8.661,3.883,12,12,0,0,0,8.661-3.883l15.68-17.771a11.38,11.38,0,0,0-1.045-16.128,11.7,11.7,0,0,0-10.9-2.389,93.529,93.529,0,0,1,22.4-51.221A11.428,11.428,0,1,0,63.508,55.99C47.23,74.209,37.524,97.654,35.134,122.742a11.489,11.489,0,0,0-13.589,17.92Z" transform="translate(9.218 25.365)" fill="#fff"/>
        <path id="Trazado_74" data-name="Trazado 74" d="M161.088,70.143a5.177,5.177,0,0,0-3.883-1.643H146.6a5.423,5.423,0,0,0-3.883,1.643,4.973,4.973,0,0,0-.6,5.824l5.675,8.661-2.539,22.549,5.227,14.037a1.61,1.61,0,0,0,2.987,0l5.227-14.037-2.688-22.549,5.675-8.661a4.752,4.752,0,0,0-.6-5.824Z" transform="translate(70.771 33.835)" fill="#fff"/>
      </g>
    </g>
  </g>
</svg>
