<svg xmlns="http://www.w3.org/2000/svg" width="449.247" height="450" viewBox="0 0 449.247 450">
  <g id="Grupo_2" data-name="Grupo 2" transform="translate(2985.61 211.9)">
    <g id="time-passing" transform="translate(-2985.61 -211.9)">
      <path id="Trazado_14" data-name="Trazado 14" d="M7.388,236.6c4.433,0,7.388-3.053,7.388-7.632,0-117.538,93.086-213.706,206.857-213.706A200.89,200.89,0,0,1,349.44,61.059H310.285c-4.433,0-7.388,3.053-7.388,7.632s2.955,7.632,7.388,7.632h66.49V7.632c0-4.579-2.955-7.632-7.388-7.632S362,3.053,362,7.632V51.9C322.105,18.318,273.346,0,221.632,0,99.735,0,0,103.037,0,228.97A7.524,7.524,0,0,0,7.388,236.6Z" fill="#fff"/>
      <path id="Trazado_15" data-name="Trazado 15" d="M171.947,8C81.776,8,8,81.774,8,171.941S81.776,335.882,171.947,335.882s163.947-73.773,163.947-163.941S262.117,8,171.947,8Zm0,312.979C89.973,320.979,22.9,253.912,22.9,171.941S89.973,22.9,171.947,22.9,320.989,89.971,320.989,171.941,253.92,320.979,171.947,320.979Z" transform="translate(53.058 53.059)" fill="#fff"/>
      <path id="Trazado_16" data-name="Trazado 16" d="M36.632,41.529A7.211,7.211,0,0,0,44.265,33.9V18.632A7.211,7.211,0,0,0,36.632,11,7.211,7.211,0,0,0,29,18.632V33.9A7.648,7.648,0,0,0,36.632,41.529Z" transform="translate(188.366 71.396)" fill="#fff"/>
      <path id="Trazado_17" data-name="Trazado 17" d="M36.632,45A7.211,7.211,0,0,0,29,52.632V67.9a7.211,7.211,0,0,0,7.632,7.632A7.211,7.211,0,0,0,44.265,67.9V52.632A7.211,7.211,0,0,0,36.632,45Z" transform="translate(188.366 292.075)" fill="#fff"/>
      <path id="Trazado_18" data-name="Trazado 18" d="M52.632,44.265H67.9a7.211,7.211,0,0,0,7.632-7.632A7.211,7.211,0,0,0,67.9,29H52.632A7.211,7.211,0,0,0,45,36.632,7.648,7.648,0,0,0,52.632,44.265Z" transform="translate(292.072 188.368)" fill="#fff"/>
      <path id="Trazado_19" data-name="Trazado 19" d="M33.9,29H18.632A7.211,7.211,0,0,0,11,36.632a7.211,7.211,0,0,0,7.632,7.632H33.9a7.211,7.211,0,0,0,7.632-7.632A7.211,7.211,0,0,0,33.9,29Z" transform="translate(71.395 188.368)" fill="#fff"/>
      <path id="Trazado_20" data-name="Trazado 20" d="M117.22,65.557V26.632a7.632,7.632,0,1,0-15.265,0V65.557c-12.975,3.053-22.9,15.265-22.9,29.766a27.52,27.52,0,0,0,4.579,15.265L20.29,173.937a7.378,7.378,0,0,0,0,10.685,8.245,8.245,0,0,0,5.343,2.29,8.245,8.245,0,0,0,5.343-2.29l63.348-63.349a27.52,27.52,0,0,0,15.265,4.579,30.619,30.619,0,0,0,30.529-30.529C140.117,80.822,130.195,69.373,117.22,65.557Zm-7.632,45.031a15.265,15.265,0,1,1,15.265-15.265A15.31,15.31,0,0,1,109.588,110.588Z" transform="translate(116.131 122.044)" fill="#fff"/>
      <path id="Trazado_21" data-name="Trazado 21" d="M13.057,55.663a8.208,8.208,0,0,0,1.526,10.685,10.848,10.848,0,0,0,4.579,1.526,6.941,6.941,0,0,0,6.106-3.053,8.208,8.208,0,0,0-1.526-10.685A6.916,6.916,0,0,0,13.057,55.663Z" transform="translate(76.163 338.62)" fill="#fff"/>
      <path id="Trazado_22" data-name="Trazado 22" d="M19.258,48.783c-2.29-3.053-6.869-3.816-10.685-1.526-3.053,2.29-4.579,7.632-1.526,10.685A6.942,6.942,0,0,0,13.152,61a10.847,10.847,0,0,0,4.579-1.526A6.916,6.916,0,0,0,19.258,48.783Z" transform="translate(35.695 298.309)" fill="#fff"/>
      <path id="Trazado_23" data-name="Trazado 23" d="M9.682,50.49a8.173,8.173,0,0,0-.763,10.685,8.666,8.666,0,0,0,6.106,2.29A8.068,8.068,0,0,0,21.13,50.49,8.3,8.3,0,0,0,9.682,50.49Z" transform="translate(48.324 310.947)" fill="#fff"/>
      <path id="Trazado_24" data-name="Trazado 24" d="M22.3,52.289c-3.053-3.053-7.632-2.29-10.685.763s-3.053,7.632.763,10.685a6.929,6.929,0,0,0,5.343,2.29,6.929,6.929,0,0,0,5.343-2.29c2.29-3.816,2.29-8.4-.763-11.448Z" transform="translate(62.42 325.967)" fill="#fff"/>
      <path id="Trazado_25" data-name="Trazado 25" d="M18.573,47.388h0c-2.29-3.816-6.869-5.343-10.685-3.053S2.545,51.2,4.835,55.02A8.015,8.015,0,0,0,11.7,58.836a6.881,6.881,0,0,0,3.816-.763C19.336,55.783,20.1,51.2,18.573,47.388Z" transform="translate(24.931 280.982)" fill="#fff"/>
      <path id="Trazado_26" data-name="Trazado 26" d="M65.532,45.365h0a7.211,7.211,0,0,0,7.632-7.632A7.211,7.211,0,0,0,65.532,30.1a7.632,7.632,0,0,0,0,15.265Z" transform="translate(376.082 195.513)" fill="#fff"/>
      <path id="Trazado_27" data-name="Trazado 27" d="M8.6,47.35a8.18,8.18,0,0,0,6.869-8.4c0-3.816-4.579-7.632-8.4-6.869C2.49,32.085.2,35.9.2,40.481.2,44.3,4.016,47.35,7.832,47.35Z" transform="translate(1.326 207.769)" fill="#fff"/>
      <path id="Trazado_28" data-name="Trazado 28" d="M9.861,49.629a7.916,7.916,0,0,0,6.106-9.159c-.763-3.816-4.579-6.106-9.159-5.343A7.916,7.916,0,0,0,.7,44.286a7.432,7.432,0,0,0,7.632,6.106C9.1,50.392,9.861,50.392,9.861,49.629Z" transform="translate(3.877 227.214)" fill="#fff"/>
      <path id="Trazado_29" data-name="Trazado 29" d="M16.846,45.124c-1.526-3.816-6.106-5.343-9.922-3.816S1.582,47.414,3.108,51.23Q5.4,55.81,9.977,55.81c.763,0,2.29,0,3.053-.763C16.846,53.52,18.373,48.941,16.846,45.124Z" transform="translate(16.736 264.518)" fill="#fff"/>
      <path id="Trazado_30" data-name="Trazado 30" d="M16.317,43.37a8.746,8.746,0,0,0-9.922-5.343,7.637,7.637,0,0,0-4.579,9.922,7.331,7.331,0,0,0,6.869,5.343h2.29C15.554,51,17.843,47.186,16.317,43.37Z" transform="translate(8.87 246.051)" fill="#fff"/>
      <path id="Trazado_31" data-name="Trazado 31" d="M36.132,58A7.648,7.648,0,0,0,28.5,65.632a7.211,7.211,0,0,0,7.632,7.632h0a7.648,7.648,0,0,0,7.632-7.632A8.208,8.208,0,0,0,36.132,58Z" transform="translate(185.118 376.735)" fill="#fff"/>
      <path id="Trazado_32" data-name="Trazado 32" d="M53.458,49.583c-2.29,3.053-2.29,8.4,1.526,10.685A10.849,10.849,0,0,0,59.564,61.8a6.942,6.942,0,0,0,6.106-3.053c2.29-3.053,2.29-8.4-1.526-10.685S56.511,46.53,53.458,49.583Z" transform="translate(336.257 303.506)" fill="#fff"/>
      <path id="Trazado_33" data-name="Trazado 33" d="M48.909,54.257c-3.816,2.29-4.579,6.869-2.29,10.685A6.941,6.941,0,0,0,52.725,68c1.526,0,3.053,0,4.579-1.526,3.816-2.29,4.579-6.869,2.29-10.685C57.3,52.73,52.725,51.967,48.909,54.257Z" transform="translate(294.44 343.08)" fill="#fff"/>
      <path id="Trazado_34" data-name="Trazado 34" d="M50.452,52.658c-3.053,3.053-3.816,7.632-.763,10.685,1.526,1.526,3.816,3.053,6.106,3.053a14.15,14.15,0,0,0,5.343-1.526c3.053-3.053,3.816-7.632.763-10.685C58.848,50.368,54.268,50.368,50.452,52.658Z" transform="translate(310.112 330.941)" fill="#fff"/>
      <path id="Trazado_35" data-name="Trazado 35" d="M65.6,45.358a8.216,8.216,0,0,0-10.685,2.29c-2.29,3.816-1.526,8.4,2.29,10.685,1.526.763,2.29,1.526,3.816,1.526,2.29,0,5.343-1.526,6.106-3.816C70.184,52.99,68.657,47.648,65.6,45.358Z" transform="translate(347.771 287.454)" fill="#fff"/>
      <path id="Trazado_36" data-name="Trazado 36" d="M52.19,51.29a7.378,7.378,0,0,0,0,10.685,7.378,7.378,0,0,0,10.685,0A7.556,7.556,0,0,0,52.19,51.29Z" transform="translate(323.024 317.044)" fill="#fff"/>
      <path id="Trazado_37" data-name="Trazado 37" d="M66.3,33.2c-3.816-.763-7.632,2.29-8.4,6.869-.763,3.816,2.29,7.632,6.106,8.4h.763c3.816,0,6.869-3.053,7.632-6.869S70.114,33.965,66.3,33.2Z" transform="translate(375.317 214.898)" fill="#fff"/>
      <path id="Trazado_38" data-name="Trazado 38" d="M66.486,36.227c-3.816-.763-8.4,1.526-9.159,5.343s1.526,8.4,5.343,9.159H64.2a7.432,7.432,0,0,0,7.632-6.106C72.592,41.57,70.3,36.99,66.486,36.227Z" transform="translate(371.313 234.368)" fill="#fff"/>
      <path id="Trazado_39" data-name="Trazado 39" d="M25.943,55.035c-3.816-2.29-8.4-.763-10.685,3.053a8.216,8.216,0,0,0,2.29,10.685,6.881,6.881,0,0,0,3.816.763,9.107,9.107,0,0,0,6.869-3.816C30.523,61.9,29.759,57.325,25.943,55.035Z" transform="translate(91.945 349.934)" fill="#fff"/>
      <path id="Trazado_40" data-name="Trazado 40" d="M66.637,39.415c-3.816-1.526-8.4.763-9.922,4.579s.763,8.4,4.579,9.922c.763,0,1.526.763,2.29.763a7.331,7.331,0,0,0,6.869-5.343C72.743,44.758,70.454,40.942,66.637,39.415Z" transform="translate(365.055 252.909)" fill="#fff"/>
      <path id="Trazado_41" data-name="Trazado 41" d="M65.63,42.308c-3.816-1.526-8.4,0-9.922,3.816s0,8.4,3.816,9.922c.763.763,2.29.763,3.053.763q4.579,0,6.869-4.579C70.973,48.414,69.446,43.835,65.63,42.308Z" transform="translate(357.667 271.014)" fill="#fff"/>
      <path id="Trazado_42" data-name="Trazado 42" d="M34,57.9c-3.816-.763-7.632,2.29-8.4,6.869-.763,3.816,2.29,7.632,6.869,8.4h.763c3.816,0,6.869-3.053,7.632-6.869A8.943,8.943,0,0,0,34,57.9Z" transform="translate(165.532 375.307)" fill="#fff"/>
      <path id="Trazado_43" data-name="Trazado 43" d="M29.937,56.915c-3.816-1.526-8.4.763-9.922,4.579s.763,8.4,4.579,9.922h2.29a7.331,7.331,0,0,0,6.869-5.343C36.043,62.258,34.517,58.442,29.937,56.915Z" transform="translate(126.902 366.371)" fill="#fff"/>
      <path id="Trazado_44" data-name="Trazado 44" d="M31.784,57.426A7.783,7.783,0,0,0,28.732,72.69h1.526a7.432,7.432,0,0,0,7.632-6.106A7.726,7.726,0,0,0,31.784,57.426Z" transform="translate(146.021 371.967)" fill="#fff"/>
      <path id="Trazado_45" data-name="Trazado 45" d="M27.43,55.908c-3.816-1.526-8.4,0-9.922,3.816s0,8.4,3.816,9.922c.763.763,2.29.763,3.053.763q4.579,0,6.869-4.579C32.773,62.014,31.246,57.435,27.43,55.908Z" transform="translate(109.925 358.983)" fill="#fff"/>
      <path id="Trazado_46" data-name="Trazado 46" d="M40.608,57.6A7.916,7.916,0,0,0,34.5,66.761a7.432,7.432,0,0,0,7.632,6.106h1.526A7.783,7.783,0,0,0,40.608,57.6Z" transform="translate(223.338 373.317)" fill="#fff"/>
      <path id="Trazado_47" data-name="Trazado 47" d="M42.77,56.929c-3.816.763-6.106,5.343-5.343,9.159.763,3.053,3.816,5.343,7.632,5.343h2.29a8.746,8.746,0,0,0,5.343-9.922A9.236,9.236,0,0,0,42.77,56.929Z" transform="translate(242.15 368.648)" fill="#fff"/>
      <path id="Trazado_48" data-name="Trazado 48" d="M44.91,56.694C41.094,58.22,38.8,62.8,41.094,66.616q2.29,4.579,6.869,4.579c.763,0,2.29,0,3.053-.763,3.816-1.526,6.106-6.106,3.816-9.922C53.306,56.694,48.726,54.4,44.91,56.694Z" transform="translate(260.983 362.013)" fill="#fff"/>
      <path id="Trazado_49" data-name="Trazado 49" d="M38.454,57.9c-3.816.763-7.632,3.816-6.869,8.4,0,3.816,3.816,6.869,7.632,6.869h.763a7.287,7.287,0,0,0,6.869-8.4A8.942,8.942,0,0,0,38.454,57.9Z" transform="translate(204.519 376.072)" fill="#fff"/>
      <path id="Trazado_50" data-name="Trazado 50" d="M46.988,55.514c-3.816,2.29-5.343,6.869-3.053,10.685A8.015,8.015,0,0,0,50.8,70.016a6.881,6.881,0,0,0,3.816-.763c3.816-2.29,5.343-6.869,3.053-9.922C55.383,54.751,50.8,53.224,46.988,55.514Z" transform="translate(278.377 353.271)" fill="#fff"/>
    </g>
  </g>
</svg>
