<svg xmlns="http://www.w3.org/2000/svg" width="383.262" height="450" viewBox="0 0 383.262 450">
  <g id="shield" transform="translate(-38.002)">
    <path id="Trazado_11" data-name="Trazado 11" d="M420.837,122.1v-.352c-.176-4.307-.352-8.879-.439-13.977a47.783,47.783,0,0,0-44.921-46.767c-51.69-2.813-91.776-19.691-125.971-53.1l-.264-.264a28.835,28.835,0,0,0-39.119,0l-.352.264C175.576,41.317,135.578,58.195,83.8,61.1a47.639,47.639,0,0,0-44.921,46.679c-.088,5.011-.176,9.67-.44,13.977v.791c-.967,52.745-2.286,118.412,19.691,178.013a225.744,225.744,0,0,0,54.415,84.655c27.339,26.636,63.118,47.822,106.368,62.942a36,36,0,0,0,4.4,1.231,32.855,32.855,0,0,0,12.659,0,25.054,25.054,0,0,0,4.4-1.231c43.25-15.12,79.029-36.306,106.28-62.942,24-23.471,42.284-51.953,54.415-84.743C423.035,240.779,421.8,175.024,420.837,122.1Zm-44.569,169.31c-23.208,62.854-70.5,106.017-144.608,131.862-.264.088-.527.176-.879.264a5.015,5.015,0,0,1-2.286,0l-.791-.264c-74.194-25.845-121.576-69.008-144.7-131.862C62.79,236.472,63.933,176.167,64.9,122.983v-.264c.176-4.571.352-9.318.44-14.593A21.243,21.243,0,0,1,85.295,87.38c29.273-1.67,55.03-7.3,78.677-17.318s44.569-24.087,64.085-43.075a2.335,2.335,0,0,1,3.253,0c19.515,18.988,40.525,33.053,64.085,43.075,23.647,10.021,49.4,15.648,78.677,17.318a21.177,21.177,0,0,1,19.955,20.746c.088,5.274.176,10.109.44,14.593C395.432,176.079,396.575,236.384,376.268,291.414Z" transform="translate(0 0)" fill="#fff"/>
    <path id="Trazado_12" data-name="Trazado 12" d="M239.562,128.4c-61.331,0-111.162,51.412-111.162,114.689s49.831,114.689,111.162,114.689,111.162-51.412,111.162-114.689C350.724,179.9,300.893,128.4,239.562,128.4Zm0,202.414c-46.869,0-85.027-39.368-85.027-87.725s38.157-87.725,85.027-87.725,85.027,39.368,85.027,87.725S286.431,330.814,239.562,330.814Z" transform="translate(-9.923 -18.046)" fill="#fff"/>
    <path id="Trazado_13" data-name="Trazado 13" d="M281.61,215.914,228.82,268.7l-14.333-14.333a13.345,13.345,0,0,0-18.873,18.873l23.769,23.769a13.325,13.325,0,0,0,18.873,0l62.227-62.227a13.345,13.345,0,0,0-18.873-18.873Z" transform="translate(-19.284 -26.206)" fill="#fff"/>
  </g>
</svg>
