<svg xmlns="http://www.w3.org/2000/svg" width="255.001" height="450" viewBox="0 0 255.001 450">
  <g id="flash" transform="translate(-110.933)">
    <g id="Grupo_1" data-name="Grupo 1" transform="translate(110.933)">
      <path id="Trazado_1" data-name="Trazado 1" d="M365.232,154.335A7.5,7.5,0,0,0,358.437,150H269.562L357.274,11.513A7.5,7.5,0,0,0,350.937,0h-120a7.507,7.507,0,0,0-6.712,4.148l-112.5,225A7.5,7.5,0,0,0,118.436,240h77.122L111.521,439.59a7.5,7.5,0,0,0,12.653,7.748l240-285A7.507,7.507,0,0,0,365.232,154.335Z" transform="translate(-110.933)" fill="#fff"/>
    </g>
  </g>
</svg>
